<?xml version="1.0" standalone="no"?><!DOCTYPE svg PUBLIC "-//W3C//DTD SVG 1.1//EN" "http://www.w3.org/Graphics/SVG/1.1/DTD/svg11.dtd"><svg t="1482808961587" class="icon" style="" viewBox="0 0 1024 1024" version="1.1" xmlns="http://www.w3.org/2000/svg" p-id="2471" xmlns:xlink="http://www.w3.org/1999/xlink" width="16" height="16"><defs><style type="text/css"></style></defs><path d="M959.998212 448.001788 575.998212 448.001788 575.998212 64.001788c0-35.345979-28.652233-63.998212-63.998212-63.998212s-63.998212 28.652233-63.998212 63.998212l0 383.996424L64.005364 447.998212c-35.345979 0-64.005364 28.652233-64.005364 63.998212 0 35.345979 28.659385 63.998212 64.005364 63.998212l383.996424 0 0 383.996424c0 35.345979 28.652233 63.998212 63.998212 63.998212s63.998212-28.652233 63.998212-63.998212l0-383.996424 384 0c35.345979 0 63.998212-28.655809 63.998212-63.998212C1024 476.654021 995.344191 448.001788 959.998212 448.001788z" p-id="2472" fill="#2c2c2c"></path></svg>